<?xml version="1.0" encoding="UTF-8"?><svg xmlns="http://www.w3.org/2000/svg" xmlns:xlink="http://www.w3.org/1999/xlink" fill-opacity="1" color-rendering="auto" color-interpolation="auto" text-rendering="auto" stroke="black" stroke-linecap="square" width="276" stroke-miterlimit="10" shape-rendering="auto" stroke-opacity="1" fill="black" stroke-dasharray="none" font-weight="normal" stroke-width="1" height="242" font-family="'Dialog'" font-style="normal" stroke-linejoin="miter" font-size="12" stroke-dashoffset="0" image-rendering="auto">
  <!--Generated by ySVG 2.5-->
  <defs id="genericDefs"/>
  <g>
    <defs id="defs1">
      <clipPath clipPathUnits="userSpaceOnUse" id="clipPath1">
        <path d="M0 0 L276 0 L276 242 L0 242 L0 0 Z"/>
      </clipPath>
      <clipPath clipPathUnits="userSpaceOnUse" id="clipPath2">
        <path d="M715 195 L991 195 L991 437 L715 437 L715 195 Z"/>
      </clipPath>
      <clipPath clipPathUnits="userSpaceOnUse" id="clipPath3">
        <path d="M730 210 L730 422 L976 422 L976 210 Z"/>
      </clipPath>
    </defs>
    <g fill="rgb(204,255,255)" text-rendering="geometricPrecision" shape-rendering="geometricPrecision" transform="matrix(1,0,0,1,-715,-195)" stroke="rgb(204,255,255)">
      <rect x="731" width="244" height="210" y="211" clip-path="url(#clipPath2)" stroke="none"/>
    </g>
    <g fill="white" text-rendering="geometricPrecision" shape-rendering="geometricPrecision" transform="matrix(1,0,0,1,-715,-195)" stroke="white">
      <rect x="730" width="1" height="212" y="210" clip-path="url(#clipPath2)" stroke="none"/>
      <rect x="731" width="244" height="1" y="210" clip-path="url(#clipPath2)" stroke="none"/>
      <rect x="731" y="421" clip-path="url(#clipPath2)" fill="rgb(142,178,178)" width="245" height="1" stroke="none"/>
      <rect x="975" y="210" clip-path="url(#clipPath2)" fill="rgb(142,178,178)" width="1" height="211" stroke="none"/>
    </g>
    <g text-rendering="geometricPrecision" stroke-miterlimit="1.45" shape-rendering="geometricPrecision" font-family="sans-serif" transform="matrix(1,0,0,1,-715,-195)" stroke-linecap="butt">
      <text x="825.3145" xml:space="preserve" y="227.0645" clip-path="url(#clipPath3)" stroke="none">&lt;&lt;class&gt;&gt;</text>
      <text x="825.1941" font-size="13" y="251.771" clip-path="url(#clipPath3)" stroke="none" font-weight="bold" xml:space="preserve">MyString</text>
      <line stroke-linecap="square" clip-path="url(#clipPath3)" fill="none" x1="731" x2="975" y1="259" y2="259" stroke-miterlimit="10"/>
      <text x="735" xml:space="preserve" y="276.6919" clip-path="url(#clipPath3)" stroke="none">- chaine : string</text>
      <line stroke-linecap="square" clip-path="url(#clipPath3)" fill="none" x1="731" x2="975" y1="284" y2="284" stroke-miterlimit="10"/>
      <text x="735" xml:space="preserve" y="301.3931" clip-path="url(#clipPath3)" stroke="none">+ length() : int</text>
      <text x="735" xml:space="preserve" y="316.0942" clip-path="url(#clipPath3)" stroke="none">+ charAt(int position) : char</text>
      <text x="735" xml:space="preserve" y="330.7954" clip-path="url(#clipPath3)" stroke="none">+ indexOf(char lettre) : int</text>
      <text x="735" xml:space="preserve" y="345.4966" clip-path="url(#clipPath3)" stroke="none">+ substring(int debut, int fin) : string</text>
      <text x="735" xml:space="preserve" y="360.1978" clip-path="url(#clipPath3)" stroke="none">+ split(string separateur) : array</text>
      <text x="735" xml:space="preserve" y="374.8989" clip-path="url(#clipPath3)" stroke="none">+ toLowerCase() : string</text>
      <text x="735" xml:space="preserve" y="389.6001" clip-path="url(#clipPath3)" stroke="none">+ toUpperCase() : string</text>
      <text x="735" xml:space="preserve" y="404.3013" clip-path="url(#clipPath3)" stroke="none">+ __toString() : string</text>
    </g>
  </g>
</svg>
